<svg width="19" height="29" viewBox="0 0 19 29" fill="none" xmlns="http://www.w3.org/2000/svg">
<path opacity="0.55" d="M8.752 17.834V25.082C8.752 25.3605 8.64137 25.6276 8.44446 25.8245C8.24755 26.0214 7.98048 26.132 7.702 26.132C7.42352 26.132 7.15645 26.0214 6.95954 25.8245C6.76262 25.6276 6.652 25.3605 6.652 25.082V17.844C6.94296 18.0566 7.29177 18.1755 7.652 18.185C8.04573 18.1963 8.43146 18.0724 8.745 17.834H8.752ZM17.674 15.734C17.4088 15.734 17.1544 15.8394 16.9669 16.0269C16.7794 16.2144 16.674 16.4688 16.674 16.734V18C16.674 18.2785 16.7846 18.5455 16.9815 18.7425C17.1785 18.9394 17.4455 19.05 17.724 19.05C18.0025 19.05 18.2695 18.9394 18.4665 18.7425C18.6634 18.5455 18.774 18.2785 18.774 18V16.792C18.7823 16.6481 18.7594 16.5041 18.7068 16.3699C18.6542 16.2356 18.5733 16.1144 18.4695 16.0143C18.3656 15.9143 18.2414 15.838 18.1054 15.7904C17.9693 15.7429 17.8245 15.7254 17.681 15.739L17.674 15.734ZM4.381 20.581C4.02106 20.5699 3.67272 20.4511 3.381 20.24V27.508C3.37666 27.6489 3.40066 27.7893 3.4516 27.9208C3.50254 28.0523 3.57937 28.1722 3.67753 28.2735C3.7757 28.3747 3.89319 28.4552 4.02305 28.5102C4.15291 28.5651 4.29249 28.5934 4.4335 28.5934C4.57451 28.5934 4.71409 28.5651 4.84395 28.5102C4.97381 28.4552 5.0913 28.3747 5.18947 28.2735C5.28763 28.1722 5.36446 28.0523 5.4154 27.9208C5.46634 27.7893 5.49035 27.6489 5.486 27.508V20.29C5.15946 20.5012 4.77424 20.6031 4.386 20.581H4.381ZM14.406 13.564C14.2703 13.5568 14.1345 13.5773 14.007 13.6244C13.8795 13.6714 13.7629 13.7439 13.6644 13.8375C13.5658 13.9311 13.4874 14.0438 13.4339 14.1687C13.3803 14.2936 13.3528 14.4281 13.353 14.564V20.15C13.3487 20.2909 13.3727 20.4313 13.4236 20.5628C13.4745 20.6943 13.5514 20.8142 13.6495 20.9155C13.7477 21.0167 13.8652 21.0972 13.9951 21.1522C14.1249 21.2071 14.2645 21.2354 14.4055 21.2354C14.5465 21.2354 14.6861 21.2071 14.8159 21.1522C14.9458 21.0972 15.0633 21.0167 15.1615 20.9155C15.2596 20.8142 15.3365 20.6943 15.3874 20.5628C15.4383 20.4313 15.4623 20.2909 15.458 20.15V14.636C15.4664 14.4914 15.4434 14.3468 15.3904 14.212C15.3374 14.0772 15.2558 13.9556 15.1512 13.8554C15.0466 13.7553 14.9215 13.6791 14.7845 13.632C14.6476 13.585 14.5021 13.5683 14.358 13.583L14.406 13.564ZM11.078 15.709C10.7003 15.7064 10.3325 15.5873 10.025 15.368V22.656C10.0207 22.7969 10.0447 22.9373 10.0956 23.0688C10.1465 23.2003 10.2234 23.3202 10.3215 23.4215C10.4197 23.5227 10.5372 23.6032 10.6671 23.6582C10.7969 23.7131 10.9365 23.7414 11.0775 23.7414C11.2185 23.7414 11.3581 23.7131 11.4879 23.6582C11.6178 23.6032 11.7353 23.5227 11.8335 23.4215C11.9316 23.3202 12.0085 23.2003 12.0594 23.0688C12.1103 22.9373 12.1343 22.7969 12.13 22.656V15.378C11.8127 15.6143 11.4255 15.7379 11.03 15.729L11.078 15.709ZM2.105 21.293V0.932C2.10237 0.683903 2.00196 0.446863 1.82558 0.272361C1.64921 0.0978583 1.41111 -1.39791e-05 1.163 1.49759e-09H0.942C0.693889 -1.39791e-05 0.455791 0.0978583 0.279416 0.272361C0.103041 0.446863 0.00263387 0.683903 0 0.932V21.292C0 21.5418 0.0992463 21.7814 0.275906 21.9581C0.452565 22.1348 0.692166 22.234 0.942 22.234H1.163C1.41283 22.234 1.65244 22.1348 1.82909 21.9581C2.00575 21.7814 2.105 21.5418 2.105 21.292V21.293ZM4.491 19.809H4.271C4.02117 19.809 3.78156 19.7098 3.60491 19.5331C3.42825 19.3564 3.329 19.1168 3.329 18.867V3.358C3.33163 3.1099 3.43204 2.87286 3.60842 2.69836C3.78479 2.52386 4.02289 2.42599 4.271 2.426H4.492C4.74011 2.42599 4.97821 2.52386 5.15458 2.69836C5.33096 2.87286 5.43137 3.1099 5.434 3.358V18.887C5.434 19.1368 5.33475 19.3764 5.15809 19.5531C4.98144 19.7298 4.74183 19.829 4.492 19.829L4.491 19.809ZM7.809 17.423H7.578C7.33082 17.423 7.09376 17.3248 6.91898 17.15C6.74419 16.9752 6.646 16.7382 6.646 16.491V5.764C6.64468 5.64077 6.66781 5.5185 6.71405 5.40427C6.7603 5.29004 6.82874 5.18611 6.91542 5.0985C7.00209 5.0109 7.10528 4.94135 7.21901 4.89389C7.33275 4.84643 7.45476 4.82199 7.578 4.822H7.809C8.0571 4.82463 8.29414 4.92504 8.46864 5.10142C8.64314 5.27779 8.74101 5.51589 8.741 5.764V16.491C8.741 16.7382 8.64281 16.9752 8.46802 17.15C8.29324 17.3248 8.05618 17.423 7.809 17.423ZM11.127 14.967H10.916C10.6679 14.967 10.4298 14.8691 10.2534 14.6946C10.077 14.5201 9.97663 14.2831 9.974 14.035V8.26C9.96607 8.1315 9.98457 8.00274 10.0283 7.88168C10.0721 7.76061 10.1403 7.6498 10.2285 7.55609C10.3168 7.46237 10.4234 7.38775 10.5416 7.33683C10.6598 7.2859 10.7873 7.25976 10.916 7.26H11.137C11.3868 7.26 11.6264 7.35925 11.8031 7.53591C11.9798 7.71256 12.079 7.95217 12.079 8.202V14.016C12.0803 14.1405 12.0569 14.2641 12.0102 14.3796C11.9634 14.495 11.8943 14.6 11.8067 14.6886C11.7191 14.7771 11.6148 14.8474 11.4998 14.8953C11.3849 14.9433 11.2616 14.968 11.137 14.968L11.127 14.967ZM14.455 12.812H14.234C13.9842 12.812 13.7446 12.7128 13.5679 12.5361C13.3912 12.3594 13.292 12.1198 13.292 11.87V10.376C13.2946 10.1279 13.395 9.89086 13.5714 9.71636C13.7478 9.54186 13.9859 9.44399 14.234 9.444H14.455C14.7031 9.44399 14.9412 9.54186 15.1176 9.71636C15.294 9.89086 15.3944 10.1279 15.397 10.376V11.87C15.397 12.1181 15.2991 12.3562 15.1246 12.5326C14.9501 12.709 14.7131 12.8094 14.465 12.812H14.455Z" fill="#394149"/>
</svg>
