<svg width="28" height="28" viewBox="0 0 28 28" fill="none" xmlns="http://www.w3.org/2000/svg">
<path opacity="0.55" d="M26.062 8.20288C25.5534 7.03663 24.8799 5.94952 24.062 4.97488C22.8499 3.49338 21.338 2.28522 19.6256 1.4298C17.9132 0.574377 16.0392 0.0910794 14.1267 0.011676C12.2142 -0.0677274 10.3065 0.258562 8.52909 0.969093C6.75168 1.67962 5.14479 2.7583 3.81406 4.13422C2.48332 5.51014 1.45887 7.15214 0.808062 8.95226C0.157251 10.7524 -0.105185 12.6699 0.038007 14.5787C0.181199 16.4875 0.726776 18.3444 1.63887 20.0272C2.55097 21.7101 3.80893 23.1809 5.33005 24.3429C6.30746 25.1028 7.3875 25.7206 8.53805 26.1779C10.1514 26.8381 11.8779 27.1777 13.621 27.1779C17.2188 27.1697 20.6665 25.7356 23.2088 23.1899C25.7511 20.6443 27.1806 17.1946 27.184 13.5969C27.1866 11.7409 26.8042 9.90457 26.0611 8.20388L26.062 8.20288ZM13.611 2.76288C15.1762 2.76194 16.7227 3.10325 18.142 3.76288C17.7959 3.91253 17.4319 4.01705 17.059 4.07388C15.8326 4.25138 14.6965 4.82076 13.8202 5.69702C12.9439 6.57328 12.3746 7.70943 12.1971 8.93588C12.1193 9.62385 11.8065 10.2639 11.3115 10.748C10.8165 11.2321 10.1696 11.5305 9.48005 11.5929C8.25357 11.7701 7.1173 12.3393 6.24086 13.2154C5.36442 14.0914 4.79481 15.2275 4.61705 16.4539C4.55688 17.1078 4.27783 17.7223 3.82505 18.1979C3.04397 16.5472 2.69308 14.7258 2.80502 12.9032C2.91697 11.0805 3.48811 9.3157 4.46532 7.77305C5.44253 6.23039 6.79405 4.95997 8.39415 4.07996C9.99424 3.19996 11.7909 2.73897 13.6171 2.73988L13.611 2.76288ZM5.31705 20.6139C5.43705 20.5039 5.55805 20.4029 5.67805 20.2829C6.56994 19.4182 7.14242 18.2768 7.30205 17.0449C7.36662 16.3523 7.67575 15.7053 8.17405 15.2199C8.65338 14.721 9.2985 14.4144 9.98805 14.3579C11.2145 14.1804 12.3506 13.611 13.2269 12.7347C14.1032 11.8585 14.6725 10.7223 14.85 9.49588C14.8933 8.77152 15.2041 8.08905 15.722 7.58087C16.2134 7.09143 16.8651 6.79596 17.5571 6.74888C18.6836 6.59362 19.7343 6.09257 20.5641 5.31488C21.5091 6.0989 22.3098 7.0421 22.93 8.10188C22.892 8.1532 22.8484 8.20016 22.8001 8.24188C22.3216 8.74515 21.6773 9.05842 20.986 9.12388C19.7584 9.29829 18.6205 9.86666 17.7437 10.7435C16.8668 11.6203 16.2985 12.7582 16.1241 13.9859C16.0534 14.6766 15.7459 15.3216 15.2538 15.8114C14.7616 16.3012 14.1151 16.6056 13.424 16.6729C12.194 16.849 11.0537 17.4173 10.1723 18.2932C9.29101 19.1691 8.71576 20.306 8.53205 21.5349C8.4781 22.0247 8.30992 22.4949 8.04105 22.9079C7.0121 22.2959 6.0908 21.5189 5.31405 20.6079L5.31705 20.6139ZM13.608 24.4839C12.591 24.4849 11.5787 24.3432 10.601 24.0629C10.9351 23.4409 11.1527 22.7631 11.243 22.0629C11.3133 21.3742 11.619 20.7308 12.1085 20.2414C12.598 19.7519 13.2414 19.4462 13.93 19.3759C15.1583 19.2004 16.2967 18.6319 17.1749 17.7554C18.0532 16.879 18.624 15.7418 18.802 14.5139C18.8723 13.8252 19.178 13.1818 19.6675 12.6923C20.157 12.2029 20.8004 11.8972 21.489 11.8269C22.413 11.7073 23.2938 11.3641 24.055 10.8269C24.4762 12.4281 24.5252 14.1045 24.1983 15.7275C23.8714 17.3506 23.1773 18.8773 22.1692 20.1907C21.161 21.5041 19.8656 22.5692 18.3822 23.3045C16.8988 24.0398 15.2667 24.4258 13.611 24.4329L13.608 24.4839Z" fill="#394149"/>
</svg>
