<svg width="28" height="24" viewBox="0 0 28 24" fill="none" xmlns="http://www.w3.org/2000/svg">
<path opacity="0.55" d="M0.411 10.4105C1.1506 7.43783 2.86349 4.79803 5.27695 2.91146C7.69041 1.02488 10.6657 0 13.729 0C16.7923 0 19.7676 1.02488 22.181 2.91146C24.5945 4.79803 26.3074 7.43783 27.047 10.4105H25.847C23.8177 10.3806 21.83 10.987 20.163 12.1445C20.067 12.214 19.9668 12.2775 19.863 12.3345H19.723C19.6192 12.2775 19.519 12.214 19.423 12.1445C17.741 11.0143 15.7605 10.4107 13.734 10.4107C11.7075 10.4107 9.72699 11.0143 8.045 12.1445C7.94903 12.214 7.84883 12.2775 7.745 12.3345H7.6C7.49617 12.2775 7.39597 12.214 7.3 12.1445C5.63243 10.9866 3.64397 10.3802 1.614 10.4105H0.411ZM23.679 16.7005C24.2964 16.2196 25.0617 15.968 25.844 15.9885H27.458V12.7665H25.844C24.4643 12.7492 23.116 13.1782 22 13.9895C21.3727 14.452 20.6138 14.7016 19.8345 14.7016C19.0552 14.7016 18.2963 14.452 17.669 13.9895C16.5261 13.194 15.167 12.7676 13.7745 12.7676C12.382 12.7676 11.0229 13.194 9.88 13.9895C9.25272 14.452 8.49385 14.7016 7.7145 14.7016C6.93515 14.7016 6.17627 14.452 5.549 13.9895C4.42036 13.1686 3.05433 12.7392 1.659 12.7665H0V15.9845H1.614C2.39634 15.964 3.16156 16.2156 3.779 16.6965C4.91998 17.4922 6.27751 17.9187 7.6685 17.9187C9.05949 17.9187 10.417 17.4922 11.558 16.6965C12.1763 16.2172 12.9409 15.9657 13.723 15.9845C14.5056 15.9622 15.2714 16.2141 15.888 16.6965C17.0309 17.4921 18.39 17.9185 19.7825 17.9185C21.175 17.9185 22.5341 17.4921 23.677 16.6965L23.679 16.7005ZM23.679 22.4545C24.2964 21.9736 25.0617 21.722 25.844 21.7425H27.458V18.5215H25.844C24.4643 18.5042 23.116 18.9332 22 19.7445C21.3727 20.207 20.6138 20.4566 19.8345 20.4566C19.0552 20.4566 18.2963 20.207 17.669 19.7445C16.5261 18.949 15.167 18.5226 13.7745 18.5226C12.382 18.5226 11.0229 18.949 9.88 19.7445C9.25272 20.207 8.49385 20.4566 7.7145 20.4566C6.93515 20.4566 6.17627 20.207 5.549 19.7445C4.42036 18.9236 3.05433 18.4942 1.659 18.5215H0V21.7395H1.614C2.39634 21.719 3.16156 21.9706 3.779 22.4515C4.91998 23.2472 6.27751 23.6737 7.6685 23.6737C9.05949 23.6737 10.417 23.2472 11.558 22.4515C12.1763 21.9722 12.9409 21.7207 13.723 21.7395C14.5056 21.7172 15.2714 21.9691 15.888 22.4515C17.0309 23.2471 18.39 23.6735 19.7825 23.6735C21.175 23.6735 22.5341 23.2471 23.677 22.4515L23.679 22.4545Z" fill="#394149"/>
</svg>
